<svg width="24" height="26" viewBox="0 0 24 26" fill="none" xmlns="http://www.w3.org/2000/svg">
<path d="M23.6665 4.97299C23.6607 4.93625 23.6579 4.89974 23.6466 4.86626C23.6352 4.81952 23.6181 4.77953 23.5951 4.73628C23.5808 4.70628 23.5637 4.67629 23.5437 4.64955C23.518 4.61281 23.4895 4.58282 23.458 4.55282C23.4323 4.52957 23.4066 4.50957 23.3781 4.48957C23.3438 4.46632 23.3067 4.45284 23.2667 4.43958C23.2467 4.43284 23.2296 4.41633 23.2067 4.41284C23.1923 4.40959 23.1782 4.4161 23.161 4.4161C23.1439 4.4161 23.1325 4.4061 23.1154 4.4061L6.07263 4.40633L5.55536 0.812921C5.54958 0.782925 5.53543 0.756185 5.52686 0.729679C5.51828 0.696429 5.50971 0.662945 5.49536 0.632949C5.47543 0.5897 5.45251 0.549708 5.42679 0.512969C5.40686 0.486228 5.38972 0.462976 5.36679 0.439722C5.3353 0.406471 5.30101 0.382986 5.26394 0.35973C5.23823 0.342989 5.21252 0.329735 5.18401 0.316481C5.14395 0.299739 5.10408 0.293229 5.06123 0.286485C5.0413 0.28323 5.02415 0.273232 5.00402 0.273232L1.38044 0.272766C1.07188 0.272766 0.820312 0.566212 0.820312 0.926184C0.820312 1.28616 1.06887 1.5796 1.38044 1.5796H4.53242L6.607 15.9932C5.69825 16.2532 5.04689 17.19 5.04689 18.3066V18.4198C5.09253 19.7099 5.99569 20.72 7.10156 20.72L20.9663 20.7C21.2749 20.7 21.5264 20.4065 21.5236 20.0466C21.5236 19.6866 21.2721 19.3964 20.9635 19.3964L7.09876 19.4164C6.59306 19.4164 6.18143 18.9565 6.16153 18.3931V18.3099C6.16153 17.7432 6.53009 17.2798 7.01584 17.2266L11.2336 16.7866C11.2479 16.7866 11.2621 16.7866 11.2764 16.7834L21.7351 15.6965C21.755 15.6933 21.7721 15.6833 21.7923 15.6765C21.8351 15.6665 21.878 15.6533 21.9151 15.6333C21.9408 15.62 21.9637 15.6033 21.9864 15.5833C22.0207 15.5566 22.0492 15.5301 22.0779 15.4966C22.0978 15.4733 22.115 15.4498 22.1321 15.4198C22.1551 15.3831 22.1722 15.3431 22.1893 15.2999C22.2007 15.2666 22.2123 15.2366 22.2208 15.1999C22.2236 15.1831 22.2322 15.1699 22.2352 15.1499L23.6697 5.17272C23.6725 5.15597 23.6669 5.14272 23.6697 5.12598C23.6721 5.09947 23.6807 5.08273 23.6807 5.05948C23.6807 5.02948 23.6693 5.00274 23.6663 4.97275L23.6665 4.97299ZM6.53294 7.61309L6.25866 5.70963H9.11621L9.39049 7.61309H6.53294ZM6.7215 8.91642H9.57905L9.90475 11.1798H7.0472L6.7215 8.91642ZM7.71593 15.8369L7.23296 12.4835H10.0905L10.5306 15.5435L7.71593 15.8369ZM13.8025 15.2035L11.648 15.427L11.225 12.4835H13.8025L13.8025 15.2035ZM13.8025 11.1801H11.0365L10.7108 8.91677H13.8027L13.8025 11.1801ZM13.8025 7.61321H10.525L10.2507 5.71326H13.8027L13.8025 7.61321ZM17.1516 14.8534L14.92 15.0868V12.4835H17.4917L17.1516 14.8534ZM17.6802 11.18H14.9197V8.91659H18.0059L17.6802 11.18ZM14.9199 7.61303V5.70957H18.4661L18.1919 7.61303H14.9199ZM21.2065 14.4329L18.3003 14.7331L18.6233 12.483H21.4836L21.2065 14.4329ZM21.6751 11.1797H18.8118L19.1375 8.91636H21.9979L21.6751 11.1797ZM22.1866 7.61279H19.3262L19.6005 5.70933H22.4609L22.1866 7.61279Z" fill="#6C758D"/>
<path d="M9.64728 21.4469C8.63571 21.4469 7.81268 22.407 7.81268 23.5871C7.81268 24.7671 8.63571 25.7272 9.64728 25.7272C10.6589 25.7272 11.4819 24.7671 11.4819 23.5871C11.4819 22.407 10.6589 21.4469 9.64728 21.4469ZM9.64728 24.4272C9.25002 24.4272 8.93009 24.0505 8.93009 23.5905C8.93009 23.1271 9.253 22.7539 9.64728 22.7539C10.0416 22.7539 10.3645 23.1306 10.3645 23.5905C10.3645 24.0505 10.0446 24.4272 9.64728 24.4272Z" fill="#6C758D"/>
<path d="M17.6399 21.4469C16.6283 21.4469 15.8053 22.407 15.8053 23.5871C15.8053 24.7671 16.6283 25.7272 17.6399 25.7272C18.6515 25.7272 19.4745 24.7671 19.4745 23.5871C19.4743 22.407 18.6515 21.4469 17.6399 21.4469ZM17.6399 24.4272C17.2426 24.4272 16.9227 24.0505 16.9227 23.5905C16.9227 23.1271 17.2456 22.7539 17.6399 22.7539C18.0372 22.7539 18.3571 23.1306 18.3571 23.5905C18.3571 24.0505 18.0342 24.4272 17.6399 24.4272Z" fill="#6C758D"/>
</svg>
