<svg width="23" height="26" viewBox="0 0 23 26" fill="none" xmlns="http://www.w3.org/2000/svg">
<path d="M21.9571 25.7271C22.2574 25.7271 22.501 25.4518 22.501 25.1129C22.501 20.0251 19.7538 15.4435 15.7085 13.5843C17.1795 12.2031 18.118 10.1217 18.118 7.79725C18.118 3.64826 15.1289 0.272766 11.4547 0.272766C7.78077 0.272766 4.79141 3.64842 4.79141 7.79725C4.79141 10.1225 5.73049 12.2044 7.20263 13.5859C3.26289 15.4131 0.680664 19.9022 0.680664 25.1129C0.680664 25.452 0.924443 25.7271 1.22456 25.7271C1.52487 25.7271 1.76845 25.4518 1.76845 25.1129C1.76845 20.1037 4.39404 15.8395 8.31859 14.4344C9.25407 15.0001 10.3214 15.3222 11.4547 15.3222C12.5881 15.3222 13.6555 15.0004 14.5908 14.4342C18.6158 15.8719 21.4129 20.2333 21.4129 25.1127C21.4129 25.4523 21.6565 25.7271 21.957 25.7271L21.9571 25.7271ZM5.8792 7.79775C5.8792 4.3259 8.38037 1.50175 11.4546 1.50175C14.5291 1.50175 17.03 4.32595 17.03 7.79775C17.03 11.2694 14.5291 14.0937 11.4546 14.0937C8.38032 14.0937 5.8792 11.2695 5.8792 7.79775Z" fill="#6C758D"/>
</svg>
