<svg width="22" height="26" viewBox="0 0 22 26" fill="none" xmlns="http://www.w3.org/2000/svg">
<path d="M8.25581 0.272766C3.70679 0.272766 0 4.59691 0 9.90353C0 15.2102 3.70679 19.5343 8.25581 19.5343C10.2128 19.5343 12.0079 18.7296 13.425 17.3954L20.3081 25.4249C20.6534 25.8278 21.2157 25.828 21.5613 25.4249C21.9066 25.0221 21.9068 24.3661 21.5613 23.963L14.6876 15.9446C15.8299 14.292 16.5119 12.1849 16.5119 9.90372C16.5119 4.59709 12.8051 0.27295 8.25607 0.27295L8.25581 0.272766ZM8.25581 2.33662C11.8487 2.33662 14.7425 5.71237 14.7425 9.90366C14.7425 14.0949 11.8487 17.4707 8.25581 17.4707C4.66295 17.4707 1.7691 14.0949 1.7691 9.90366C1.7691 5.71218 4.6629 2.33662 8.25581 2.33662Z" fill="#6C758D"/>
</svg>
