<svg width="25" height="21" viewBox="0 0 25 21" fill="none" xmlns="http://www.w3.org/2000/svg">
<path d="M24.4905 2.37864C23.5903 2.78535 22.6224 3.0565 21.6013 3.18463C22.6395 2.55619 23.4381 1.55383 23.8129 0.369544C22.8415 0.950318 21.7655 1.37671 20.6205 1.6015C19.7062 0.613136 18.4021 0 16.9572 0C14.1817 0 11.9324 2.27411 11.9324 5.07784C11.9324 5.47449 11.9778 5.86109 12.0636 6.23632C7.88831 6.02247 4.18517 3.99851 1.70769 0.926702C1.2724 1.67716 1.02753 2.55619 1.02753 3.48377C1.02753 5.24664 1.91268 6.79829 3.26228 7.71275C2.43845 7.68694 1.66309 7.45341 0.984216 7.07862C0.984216 7.09393 0.984216 7.11667 0.984216 7.1381C0.984216 9.60157 2.71678 11.6527 5.01328 12.1197C4.59344 12.2369 4.15 12.3021 3.69285 12.3021C3.36821 12.3021 3.05214 12.2645 2.74594 12.2085C3.38536 14.2215 5.24057 15.6931 7.43844 15.7364C5.71874 17.0961 3.55304 17.9104 1.19778 17.9104C0.790804 17.9104 0.393257 17.8868 0 17.8382C2.22446 19.2749 4.86661 20.1172 7.70261 20.1172C16.944 20.1172 21.9993 12.3782 21.9993 5.66473C21.9993 5.44475 21.9924 5.22565 21.9821 5.00917C22.9689 4.29895 23.8189 3.40243 24.4905 2.37864Z" fill="#C1DBF0"/>
</svg>
